<svg width="170" height="50" viewBox="0 0 170 50" fill="none" xmlns="http://www.w3.org/2000/svg">
<path fill-rule="evenodd" clip-rule="evenodd" d="M24.3459 18.6228C24.3459 19.1421 24.3797 19.6535 24.4451 20.155H24.3459V29.4298V29.8888V42.7828H8.9021V20.155H9.00127C8.93586 19.6535 8.9021 19.1421 8.9021 18.6228C8.9021 12.1028 14.2218 6.8172 20.7839 6.8172H29.1362C30.3712 6.8172 31.5622 7.00441 32.6819 7.35182C31.1288 7.83369 29.7125 8.62375 28.5058 9.64995C25.9596 11.8152 24.3459 15.0318 24.3459 18.6228Z" fill="#006FEE"/>
<path fill-rule="evenodd" clip-rule="evenodd" d="M32.682 7.35183C31.1288 7.83369 29.7126 8.62375 28.5059 9.64995C25.9597 11.8152 24.3459 15.0318 24.3459 18.6228C24.3459 19.1421 24.3797 19.6535 24.4451 20.155H32.5666H40.9188C40.9842 19.6535 41.018 19.1421 41.018 18.6228C41.018 13.3299 37.5122 8.85041 32.682 7.35183Z" fill="#D9D9D9"/>
<path d="M24.3525 20.293C24.3525 26.5034 29.4195 31.5379 35.67 31.5379H24.3525V20.293Z" fill="#0CF48B"/>
<path d="M24.3525 20.293C24.3525 26.5034 19.2855 31.5379 13.0351 31.5379H24.3525V20.293Z" fill="#0CF48B"/>
<path d="M24.3525 42.7828C24.3525 36.5724 19.2855 31.5379 13.0351 31.5379H24.3525V42.7828Z" fill="#0CF48B"/>
<path d="M24.3525 42.7828C24.3525 36.5724 29.4195 31.5379 35.67 31.5379H24.3525V42.7828Z" fill="#0CF48B"/>
<path d="M159.01 35.6928C157.201 35.6928 155.784 35.2576 154.76 34.3872C153.736 33.4997 153.224 32.3392 153.224 30.9056C153.224 29.3867 153.753 28.2176 154.812 27.3984C155.87 26.5792 157.389 26.1696 159.368 26.1696H163.772V25.5808C163.772 23.9253 162.782 23.0976 160.802 23.0976C159.078 23.0976 158.037 23.6949 157.679 24.8896H153.455C153.796 23.2 154.59 21.92 155.836 21.0496C157.081 20.1792 158.737 19.744 160.802 19.744C163.089 19.744 164.83 20.256 166.024 21.28C167.236 22.304 167.842 23.7973 167.842 25.76V31.2128H169.839V35.4112H165.538V32.9024H164.463C163.934 33.7899 163.225 34.4811 162.338 34.976C161.451 35.4539 160.341 35.6928 159.01 35.6928ZM159.65 32.4672C160.452 32.4672 161.16 32.3221 161.775 32.032C162.389 31.7419 162.876 31.3579 163.234 30.88C163.592 30.3851 163.772 29.8304 163.772 29.216V28.9856H159.573C158.037 28.9856 157.269 29.5573 157.269 30.7008C157.269 31.264 157.482 31.6992 157.909 32.0064C158.336 32.3136 158.916 32.4672 159.65 32.4672Z" fill="#52525B"/>
<path d="M146.35 35.4112V20.0512H150.6V35.4112H146.35ZM148.475 18.5408C147.827 18.5408 147.272 18.3189 146.811 17.8752C146.367 17.4144 146.146 16.8597 146.146 16.2112C146.146 15.5627 146.367 15.0165 146.811 14.5728C147.272 14.112 147.827 13.8816 148.475 13.8816C149.124 13.8816 149.67 14.112 150.114 14.5728C150.574 15.0165 150.805 15.5627 150.805 16.2112C150.805 16.8597 150.574 17.4144 150.114 17.8752C149.67 18.3189 149.124 18.5408 148.475 18.5408Z" fill="#52525B"/>
<path d="M134.435 35.4112V24.2496H132.335V20.0512H136.636V23.072H137.711C138.121 21.9968 138.77 21.1947 139.657 20.6656C140.545 20.1365 141.543 19.872 142.652 19.872H143.958V23.5584H142.473C141.142 23.5584 140.161 23.9339 139.529 24.6848C138.915 25.4357 138.607 26.4256 138.607 27.6544V35.4112H134.435Z" fill="#52525B"/>
<path d="M120.136 35.6928C118.003 35.6928 116.364 35.1296 115.221 34.0032C114.077 32.8768 113.506 31.3408 113.506 29.3952V20.0512H117.755V28.576C117.755 29.6853 118.037 30.5216 118.6 31.0848C119.18 31.6309 120.042 31.904 121.186 31.904C122.363 31.904 123.268 31.6053 123.899 31.008C124.548 30.4107 124.872 29.5573 124.872 28.448V20.0512H129.122V31.2128H131.221V35.4112H126.92V32.9024H125.845C125.23 33.8069 124.479 34.4981 123.592 34.976C122.722 35.4539 121.57 35.6928 120.136 35.6928Z" fill="#52525B"/>
<path d="M106.678 35.4112C105.585 35.4112 104.732 35.1381 104.118 34.592C103.52 34.0288 103.222 33.1755 103.222 32.032V23.3792H100.585V20.0512H103.273V15.4432H107.42V20.0512H110.978V23.3792H107.471V32.0832H111.337V35.4112H106.678Z" fill="#52525B"/>
<path d="M92.3572 35.7184C90.753 35.7184 89.345 35.3941 88.1332 34.7456C86.9386 34.08 85.9999 33.1499 85.3172 31.9552C84.6516 30.7605 84.3188 29.3525 84.3188 27.7312C84.3188 26.1099 84.6516 24.7019 85.3172 23.5072C85.9828 22.3125 86.9215 21.3909 88.1332 20.7424C89.345 20.0768 90.753 19.744 92.3572 19.744C94.3882 19.744 96.0607 20.256 97.3748 21.28C98.689 22.304 99.5167 23.712 99.858 25.504H95.5828C95.361 24.8384 94.977 24.3264 94.4309 23.968C93.8847 23.6096 93.1935 23.4304 92.3572 23.4304C91.2138 23.4304 90.2922 23.8059 89.5924 24.5568C88.9098 25.3077 88.5684 26.3659 88.5684 27.7312C88.5684 29.0965 88.9183 30.1547 89.618 30.9056C90.3178 31.6565 91.2308 32.032 92.3572 32.032C94.1663 32.032 95.2671 31.264 95.6596 29.728H99.9348C99.6277 31.6053 98.817 33.0731 97.5028 34.1312C96.1887 35.1893 94.4735 35.7184 92.3572 35.7184Z" fill="#52525B"/>
<path d="M71.9499 35.6928C70.1408 35.6928 68.7243 35.2576 67.7003 34.3872C66.6763 33.4997 66.1643 32.3392 66.1643 30.9056C66.1643 29.3867 66.6934 28.2176 67.7515 27.3984C68.8096 26.5792 70.3286 26.1696 72.3083 26.1696H76.7115V25.5808C76.7115 23.9253 75.7216 23.0976 73.7419 23.0976C72.0182 23.0976 70.9771 23.6949 70.6187 24.8896H66.3947C66.736 23.2 67.5296 21.92 68.7755 21.0496C70.0214 20.1792 71.6768 19.744 73.7419 19.744C76.0288 19.744 77.7696 20.256 78.9643 21.28C80.176 22.304 80.7819 23.7973 80.7819 25.76V31.2128H82.7787V35.4112H78.4779V32.9024H77.4027C76.8736 33.7899 76.1654 34.4811 75.2779 34.976C74.3904 35.4539 73.2811 35.6928 71.9499 35.6928ZM72.5899 32.4672C73.392 32.4672 74.1003 32.3221 74.7147 32.032C75.3291 31.7419 75.8155 31.3579 76.1739 30.88C76.5323 30.3851 76.7115 29.8304 76.7115 29.216V28.9856H72.5131C70.9771 28.9856 70.2091 29.5573 70.2091 30.7008C70.2091 31.264 70.4224 31.6992 70.8491 32.0064C71.2758 32.3136 71.856 32.4672 72.5899 32.4672Z" fill="#52525B"/>
<path d="M54.2463 35.4112H49.9199V14.6752H64.7935V18.464H54.2463V23.072H63.9231V26.8608H54.2463V35.4112Z" fill="#52525B"/>
</svg>
